<svg width="55" height="28" viewBox="0 0 55 28" fill="none" xmlns="http://www.w3.org/2000/svg">
<path d="M12.8813 14.782C9.73096 18.2683 7.8125 22.8891 7.8125 27.958H0.471436C0.471436 20.8619 3.20898 14.4052 7.68555 9.58627L12.8813 14.782Z" fill="black"/>
<path d="M27.4714 8.29904C32.6414 8.29904 37.3455 10.2947 40.8547 13.5577L46.0481 8.36435C41.208 3.77405 34.6685 0.958038 27.4714 0.958038V8.29904Z" fill="black"/>
<path d="M26.4714 0.976227V8.32404C21.4407 8.57608 16.9082 10.7192 13.5703 14.057L8.37964 8.86618C13.0464 4.19952 19.4131 1.23322 26.4714 0.976227Z" fill="black"/>
<path d="M46.7607 9.0657L41.5696 14.257C45.0112 17.7976 47.1304 22.6303 47.1304 27.958H54.4714C54.4714 20.6032 51.5305 13.9352 46.7607 9.0657Z" fill="black"/>
<path d="M35.4841 16.2216L29.0753 26.5928C28.0989 28.1729 25.9039 28.4285 24.5905 27.1151C23.2771 25.8017 23.5328 23.6067 25.1129 22.6303L35.4841 16.2216Z" fill="black"/>
</svg>
