<svg width="55" height="28" viewBox="0 0 55 28" fill="none" xmlns="http://www.w3.org/2000/svg">
<path d="M12.6709 14.5161C9.52051 18.0023 7.60205 22.6232 7.60205 27.6921H0.260986C0.260986 20.596 2.99854 14.1392 7.4751 9.32031L12.6709 14.5161Z" fill="#C4C4C4"/>
<path d="M27.261 8.03308C32.4309 8.03308 37.135 10.0287 40.6443 13.2917L45.8376 8.09839C40.9976 3.50809 34.458 0.692078 27.261 0.692078V8.03308Z" fill="#C4C4C4"/>
<path d="M26.261 0.710266V8.05807C21.2302 8.31012 16.6978 10.4532 13.3599 13.7911L8.16919 8.60022C12.8359 3.93356 19.2026 0.967255 26.261 0.710266Z" fill="#C4C4C4"/>
<path d="M46.5503 8.79974L41.3591 13.991C44.8008 17.5317 46.9199 22.3644 46.9199 27.6921H54.261C54.261 20.3372 51.3201 13.6692 46.5503 8.79974Z" fill="#C4C4C4"/>
<path d="M35.2736 15.9557L28.8649 26.3268C27.8885 27.9069 25.6935 28.1626 24.3801 26.8492C23.0667 25.5358 23.3223 23.3408 24.9024 22.3644L35.2736 15.9557Z" fill="#C4C4C4"/>
</svg>
