<svg width="55" height="28" viewBox="0 0 55 28" fill="none" xmlns="http://www.w3.org/2000/svg">
<path d="M31.0672 2.34564C31.0672 1.24107 30.1717 0.345643 29.0672 0.345643L2.47144 0.345642C1.36687 0.345642 0.471436 1.24107 0.471436 2.34564V22.3815C0.471436 22.4506 0.474934 22.5188 0.481762 22.586C0.584183 23.5945 1.4359 24.3815 2.47144 24.3815L11.489 24.3815V25.3257C11.489 26.4303 12.3845 27.3257 13.489 27.3257H35.4896C36.5941 27.3257 37.4896 26.4303 37.4896 25.3257V25.1953H41.262C42.3665 25.1953 43.262 24.2998 43.262 23.1953V20.823H45.5144V27.3257H51.4824V4.06665H45.5144V10.9353H43.262V8.40915C43.262 7.30458 42.3665 6.40915 41.262 6.40915H39.942C39.9294 5.31541 39.0389 4.43265 37.9422 4.43265L31.0672 4.43265V2.34564Z" fill="black"/>
<path d="M54.4715 4.06665H51.4876V27.3257H54.4715V4.06665Z" fill="black"/>
</svg>
