<svg width="55" height="28" viewBox="0 0 55 28" fill="none" xmlns="http://www.w3.org/2000/svg">
<path d="M31.5496 2.76975C31.5496 1.66518 30.6542 0.769746 29.5496 0.769746L2.95386 0.769745C1.84929 0.769745 0.953857 1.66518 0.953857 2.76974V22.8056C0.953857 22.8747 0.957355 22.9429 0.964184 23.0101C1.0666 24.0186 1.91832 24.8056 2.95386 24.8056L11.9715 24.8056V25.7498C11.9715 26.8544 12.8669 27.7498 13.9715 27.7498H35.972C37.0766 27.7498 37.972 26.8544 37.972 25.7498V25.6194H41.7444C42.849 25.6194 43.7444 24.7239 43.7444 23.6194V21.2471H45.9968V27.7498H51.9648V4.49075H45.9968V11.3595H43.7444V8.83325C43.7444 7.72868 42.849 6.83325 41.7444 6.83325H40.4244C40.4119 5.73951 39.5213 4.85675 38.4246 4.85675L31.5496 4.85675V2.76975Z" fill="#C4C4C4"/>
<path d="M54.9539 4.49075H51.97V27.7498H54.9539V4.49075Z" fill="#C4C4C4"/>
</svg>
