<svg width="26" height="25" viewBox="0 0 26 25" fill="none" xmlns="http://www.w3.org/2000/svg">
<path d="M4.36432 1.34473C3.76422 1.34473 3.27832 1.83802 3.27832 2.44725V20.2259C3.27832 20.8349 3.76414 21.3284 4.36432 21.3284H13.7922V13.5913H11.2264V10.5745H13.7922V8.35003C13.7922 5.76894 15.3454 4.36396 17.6135 4.36396C18.6999 4.36396 19.6328 4.44595 19.9048 4.4827V7.17966H18.3319C17.0986 7.17966 16.8592 7.77489 16.8592 8.64808V10.5745H19.8022L19.4179 13.5913H16.8592V21.3284H21.8763C22.4762 21.3284 22.9623 20.835 22.9623 20.2259V2.44725C22.9623 1.83802 22.4762 1.34473 21.8763 1.34473H4.36432V1.34473Z" fill="white"/>
</svg>
