<svg xmlns="http://www.w3.org/2000/svg" viewBox="0 0 21.12 21.12"><defs><style>.cls-1{fill:#010101;}</style></defs><title>instagram</title><g id="Layer_2" data-name="Layer 2"><g id="Layer_1-2" data-name="Layer 1"><path class="cls-1" d="M10.56,7a3.52,3.52,0,1,0,3.52,3.52A3.53,3.53,0,0,0,10.56,7Zm10.56,3.52c0-1.46,0-2.9-.07-4.36a6.31,6.31,0,0,0-1.7-4.43A6.27,6.27,0,0,0,14.92.07C13.46,0,12,0,10.56,0S7.66,0,6.2.07a6.31,6.31,0,0,0-4.43,1.7A6.27,6.27,0,0,0,.07,6.2C0,7.66,0,9.1,0,10.56s0,2.9.07,4.36a6.31,6.31,0,0,0,1.7,4.43,6.27,6.27,0,0,0,4.43,1.7c1.46.08,2.9.07,4.36.07s2.9,0,4.36-.07a6.31,6.31,0,0,0,4.43-1.7,6.31,6.31,0,0,0,1.7-4.43c.08-1.46.07-2.9.07-4.36ZM10.56,16A5.42,5.42,0,1,1,16,10.56,5.41,5.41,0,0,1,10.56,16ZM16.2,6.19a1.26,1.26,0,1,1,1.17-.79,1.2,1.2,0,0,1-.28.41,1.25,1.25,0,0,1-.41.28,1.33,1.33,0,0,1-.48.1Z"/></g></g></svg>