<svg width="22" height="22" viewBox="0 0 22 22" fill="none" xmlns="http://www.w3.org/2000/svg">
<path d="M10.8861 7.63433C8.98515 7.63433 7.4338 9.20933 7.4338 11.1393C7.4338 13.0692 8.98515 14.6442 10.8861 14.6442C12.7871 14.6442 14.3385 13.0692 14.3385 11.1393C14.3385 9.20933 12.7871 7.63433 10.8861 7.63433ZM21.2405 11.1393C21.2405 9.68787 21.2535 8.24961 21.1732 6.80082C21.0929 5.11803 20.7148 3.62454 19.5027 2.394C18.2881 1.16082 16.8196 0.779562 15.1621 0.698052C13.7324 0.616541 12.3158 0.629688 10.8887 0.629688C9.4591 0.629688 8.04243 0.616541 6.61539 0.698052C4.95786 0.779562 3.4868 1.16345 2.27472 2.394C1.06006 3.62717 0.684527 5.11803 0.60424 6.80082C0.523954 8.25224 0.536903 9.6905 0.536903 11.1393C0.536903 12.5881 0.523954 14.029 0.60424 15.4778C0.684527 17.1605 1.06265 18.654 2.27472 19.8846C3.48939 21.1178 4.95786 21.499 6.61539 21.5805C8.04502 21.662 9.46169 21.6489 10.8887 21.6489C12.3183 21.6489 13.735 21.662 15.1621 21.5805C16.8196 21.499 18.2907 21.1151 19.5027 19.8846C20.7174 18.6514 21.0929 17.1605 21.1732 15.4778C21.2561 14.029 21.2405 12.5907 21.2405 11.1393V11.1393ZM10.8861 16.5321C7.9466 16.5321 5.57425 14.1236 5.57425 11.1393C5.57425 8.15495 7.9466 5.74645 10.8861 5.74645C13.8257 5.74645 16.198 8.15495 16.198 11.1393C16.198 14.1236 13.8257 16.5321 10.8861 16.5321ZM16.4156 6.78505C15.7292 6.78505 15.175 6.22236 15.175 5.52558C15.175 4.82879 15.7292 4.26611 16.4156 4.26611C17.1019 4.26611 17.6561 4.82879 17.6561 5.52558C17.6563 5.69103 17.6244 5.8549 17.5621 6.0078C17.4998 6.1607 17.4085 6.29963 17.2932 6.41662C17.178 6.53361 17.0412 6.62638 16.8905 6.6896C16.7399 6.75282 16.5785 6.78525 16.4156 6.78505V6.78505Z" fill="white"/>
</svg>
