<svg xmlns="http://www.w3.org/2000/svg" viewBox="0 0 25.03 20.34"><defs><style>.cls-1{fill:#010101;}</style></defs><title>twitter</title><g id="Layer_2" data-name="Layer 2"><g id="Layer_1-2" data-name="Layer 1"><path class="cls-1" d="M25,2.41a10.39,10.39,0,0,1-3,.81A5.18,5.18,0,0,0,24.34.38a10.44,10.44,0,0,1-3.26,1.24A5.14,5.14,0,0,0,12.2,5.14a5.06,5.06,0,0,0,.13,1.17A14.61,14.61,0,0,1,1.74.94,5.16,5.16,0,0,0,3.33,7.8,5.07,5.07,0,0,1,1,7.15v.07a5.13,5.13,0,0,0,4.12,5,5.2,5.2,0,0,1-2.32.09A5.14,5.14,0,0,0,7.6,15.91a10.26,10.26,0,0,1-6.37,2.2A9.9,9.9,0,0,1,0,18a14.5,14.5,0,0,0,7.87,2.31A14.5,14.5,0,0,0,22.48,5.73c0-.22,0-.44,0-.66A10.61,10.61,0,0,0,25,2.41"/></g></g></svg>