<svg width="25" height="21" viewBox="0 0 25 21" fill="none" xmlns="http://www.w3.org/2000/svg">
<path d="M24.7835 2.39635C23.881 2.80295 22.9105 3.07776 21.8922 3.20156C22.9315 2.5687 23.7295 1.56708 24.1054 0.373821C23.1328 0.959783 22.0556 1.38481 20.9082 1.61391C19.9903 0.620776 18.6818 0 17.2337 0C14.453 0 12.1993 2.28827 12.1993 5.11109C12.1993 5.51184 12.2434 5.90207 12.3296 6.27592C8.14515 6.06304 4.43542 4.02756 1.95222 0.935537C1.51882 1.69009 1.27056 2.56797 1.27056 3.50484C1.27056 5.27837 2.15903 6.84256 3.51034 7.7595C2.68507 7.73331 1.90866 7.50328 1.22984 7.12017C1.22887 7.14171 1.22886 7.16295 1.22886 7.18433C1.22886 9.66123 2.96453 11.7266 5.26749 12.1965C4.84539 12.3133 4.40071 12.3751 3.94149 12.3751C3.61675 12.3751 3.30189 12.3439 2.99395 12.2839C3.63506 14.3145 5.49404 15.7924 7.69754 15.8338C5.97305 17.2049 3.80253 18.0216 1.44356 18.0216C1.03746 18.0216 0.636374 17.9974 0.242188 17.9504C2.47119 19.4006 5.11723 20.2465 7.96074 20.2465C17.2211 20.2465 22.2844 12.4584 22.2844 5.70347C22.2844 5.48197 22.2794 5.26199 22.2703 5.04279C23.2535 4.32157 24.107 3.42159 24.7824 2.39638" fill="white"/>
</svg>
