<svg width="55" height="28" viewBox="0 0 55 28" fill="none" xmlns="http://www.w3.org/2000/svg">
<path d="M24.2881 18.0745C24.2881 18.4485 24.3321 18.7455 24.4201 18.9765C24.5081 19.2185 24.6181 19.4055 24.7501 19.5375C24.8821 19.6805 25.0471 19.7795 25.2231 19.8235C25.3991 19.8785 25.5751 19.9005 25.7731 19.9005C25.9711 19.9005 26.1691 19.8675 26.3451 19.7905C26.5211 19.7245 26.6751 19.6035 26.8071 19.4495C26.9391 19.2955 27.0381 19.0865 27.1151 18.8225C27.1811 18.5695 27.2251 18.2505 27.2251 17.8765C27.2251 17.5245 27.1811 17.2165 27.1041 16.9635C27.0271 16.7105 26.9281 16.5015 26.8071 16.3475C26.6751 16.1935 26.5321 16.0725 26.3561 15.9955C26.1801 15.9295 26.0041 15.8855 25.8281 15.8855C25.5531 15.8855 25.3221 15.9295 25.1241 16.0175C24.9261 16.1055 24.7721 16.2375 24.6511 16.3915C24.5191 16.5565 24.4311 16.7545 24.3761 16.9745C24.3101 17.1945 24.2881 17.4475 24.2881 17.7115V18.0745Z" fill="#C4C4C4"/>
<path fill-rule="evenodd" clip-rule="evenodd" d="M21.5085 5.30713C22.1711 2.74951 24.4948 0.860718 27.2595 0.860718C30.0243 0.860718 32.3481 2.74951 33.0107 5.30713H47.4721C48.3842 5.30713 49.1808 5.92435 49.4086 6.80765L54.1938 25.3613C54.5204 26.6271 53.5646 27.8607 52.2573 27.8607H2.2619C0.954769 27.8607 -0.0010414 26.6271 0.325375 25.3613L5.11053 6.80765C5.33831 5.92435 6.13494 5.30713 7.04705 5.30713H21.5085ZM30.6479 5.32938C30.1174 3.97659 28.8002 3.01868 27.2595 3.01868C25.7187 3.01868 24.4015 3.97659 23.871 5.32938H30.6479ZM20.36 12.8935H21.614V20.7475H20.36V12.8935ZM23.0561 12.8935H24.2991V15.7755C24.5191 15.4785 24.7831 15.2475 25.0801 15.0935C25.3771 14.9395 25.7291 14.8515 26.1251 14.8515C26.5321 14.8515 26.8841 14.9285 27.1921 15.0715C27.4891 15.2255 27.7421 15.4235 27.9401 15.6875C28.1381 15.9515 28.2811 16.2705 28.3801 16.6445C28.4791 17.0185 28.5341 17.4255 28.5341 17.8655C28.5341 18.3385 28.4681 18.7675 28.3581 19.1415C28.2371 19.5155 28.0721 19.8345 27.8521 20.0985C27.6321 20.3625 27.3681 20.5715 27.0601 20.7145C26.7521 20.8575 26.4001 20.9235 26.0261 20.9235C25.6741 20.9235 25.3551 20.8575 25.0691 20.7255C24.7721 20.5935 24.5081 20.3735 24.2661 20.0655V20.7475H23.0561V12.8935ZM29.4289 18.9985H30.6279C30.6499 19.1965 30.6939 19.3505 30.7819 19.4715C30.8589 19.5925 30.9579 19.6915 31.0789 19.7575C31.1999 19.8345 31.3429 19.8895 31.5079 19.9115C31.6619 19.9335 31.8379 19.9445 32.0249 19.9445C32.4429 19.9445 32.7399 19.8895 32.9269 19.7575C33.1029 19.6365 33.2019 19.4495 33.2019 19.2075C33.2019 19.0205 33.1359 18.8555 33.0259 18.7235C32.9159 18.5915 32.6849 18.5035 32.3329 18.4375C31.8709 18.3605 31.4749 18.2835 31.1339 18.2065C30.7819 18.1405 30.4959 18.0415 30.2649 17.9095C30.0229 17.7775 29.8469 17.6125 29.7369 17.4145C29.6159 17.2165 29.5609 16.9415 29.5609 16.5895C29.5609 16.3255 29.6159 16.0945 29.7369 15.8745C29.8469 15.6545 30.0119 15.4785 30.2209 15.3245C30.4299 15.1705 30.6829 15.0605 30.9689 14.9725C31.2549 14.8955 31.5739 14.8515 31.9259 14.8515C32.3659 14.8515 32.7289 14.8955 33.0259 14.9835C33.3119 15.0715 33.5539 15.1925 33.7409 15.3465C33.9169 15.5005 34.0599 15.6765 34.1589 15.8745C34.2469 16.0725 34.3239 16.2815 34.3789 16.5015L33.2569 16.6555C33.1689 16.3695 33.0259 16.1605 32.8499 16.0175C32.6739 15.8855 32.3769 15.8085 31.9589 15.8085C31.7169 15.8085 31.5189 15.8305 31.3649 15.8745C31.2109 15.9185 31.0789 15.9735 30.9909 16.0395C30.9029 16.1055 30.8369 16.1825 30.8039 16.2595C30.7709 16.3475 30.7599 16.4245 30.7599 16.5015C30.7599 16.6335 30.7709 16.7325 30.8039 16.8095C30.8259 16.8975 30.8809 16.9635 30.9579 17.0075C31.0349 17.0625 31.1449 17.1065 31.2769 17.1395C31.4089 17.1835 31.5739 17.2165 31.7719 17.2495L32.4869 17.3705C32.8609 17.4365 33.1799 17.5245 33.4329 17.6235C33.6859 17.7335 33.8839 17.8545 34.0379 18.0085C34.1919 18.1625 34.2909 18.3275 34.3569 18.5255C34.4119 18.7235 34.4449 18.9435 34.4449 19.1855C34.4449 19.7135 34.2469 20.1315 33.8509 20.4505C33.4549 20.7695 32.8499 20.9235 32.0469 20.9235C31.7169 20.9235 31.3979 20.9015 31.0899 20.8355C30.7819 20.7695 30.5179 20.6705 30.2759 20.5165C30.0339 20.3735 29.8359 20.1755 29.6819 19.9335C29.5279 19.6915 29.4509 19.3725 29.4289 18.9985Z" fill="#C4C4C4"/>
</svg>
