<svg width="111" height="70" viewBox="0 0 111 70" fill="none" xmlns="http://www.w3.org/2000/svg">
<path fill-rule="evenodd" clip-rule="evenodd" d="M84.6575 4.49037C75.561 1.14579 64.8629 0 54.3406 0C27.2784 0.542633 0.00808716 18.7209 0.00808716 38.2558C0.00808716 48.5659 6.46138 56.4341 16.6617 62.9457C18.9516 64.5736 20.4088 64.3023 23.9477 62.9457L80.6158 17.9573L92.2383 8.41646L92.2277 8.41085L95.9748 5.42635C98.681 3.25581 96.8075 -1.35659 92.644 1.62791L90.4057 3.14059L90.5164 3.14624L71.3375 16.5568L71.3177 16.5599C66.4417 19.9934 61.403 23.4269 55.3815 26.8605C53.978 27.6558 52.5567 28.4977 51.0911 29.3658L51.0908 29.366L51.0901 29.3665C47.5564 31.4596 43.7664 33.7045 39.3523 35.8139C39.0342 35.9744 38.7146 36.1363 38.3932 36.299L38.3904 36.3004C32.1926 39.438 25.3376 42.9085 16.0372 43.6822C9.58394 44.2248 2.71431 35.8139 15.6209 22.2481C20.2006 17.3643 25.6131 14.6512 30.8174 12.2093C46.1382 5.80244 62.4558 4.6893 78.1774 8.94738L84.6575 4.49037ZM102.636 39.0698C107.113 25.6702 95.2117 16.5744 90.0788 13.4283L94.5563 9.71764C104.111 15.4305 110.531 23.8189 110.339 33.3721C109.922 53.7209 85.1499 68.9147 54.3406 70C47.0547 70 36.8543 68.9147 31.2337 67.5581C24.1559 65.6589 29.5683 60.7752 31.2337 59.4186L63.7083 32.8295C71.4106 26.5891 69.1208 30.9302 66.6227 34.1861L54.3406 51.2791C54.1121 51.604 53.8835 51.9155 53.6645 52.214C51.689 54.9059 50.4881 56.5424 57.0468 57.5194C59.3367 57.7907 69.5371 58.062 77.8639 55.3488C88.4806 52.3643 100.138 46.3953 102.636 39.0698Z" fill="#1A1A1A"/>
</svg>
